<svg width="237" height="152" viewBox="0 0 237 152" fill="none" xmlns="http://www.w3.org/2000/svg">
<path d="M16.6608 144.79C16.698 145.693 16.5201 146.592 16.1418 147.413C15.7634 148.234 15.1954 148.954 14.4844 149.513C12.6681 150.818 10.4761 151.497 8.23902 151.449C6.94146 151.479 5.64372 151.4 4.35931 151.213C3.22623 151.058 2.11488 150.773 1.04736 150.363V144.649C2.17227 145.146 3.34555 145.526 4.54857 145.782C5.65955 146.083 6.80419 146.241 7.95514 146.254C9.42186 146.254 10.1789 145.924 10.1789 145.215C10.1599 145.026 10.0936 144.845 9.98617 144.688C9.87869 144.532 9.73345 144.404 9.5638 144.318C8.33468 143.675 7.05252 143.137 5.7314 142.712C4.25374 142.209 2.93292 141.33 1.89901 140.162C1.2212 139.076 0.906438 137.802 1.00005 136.526C0.961997 135.688 1.13734 134.854 1.50968 134.103C1.88203 133.351 2.43922 132.706 3.12916 132.228C4.93252 131.084 7.0524 130.538 9.1853 130.669C10.4437 130.663 11.6985 130.805 12.9231 131.095C14.1432 131.408 15.3312 131.835 16.4716 132.37L14.6264 136.762C13.6941 136.338 12.7289 135.991 11.7402 135.723C10.9263 135.473 10.0834 135.331 9.23261 135.298C8.09708 135.298 7.52932 135.581 7.52932 136.101C7.54382 136.291 7.60831 136.474 7.71629 136.632C7.82427 136.789 7.97193 136.915 8.1444 136.998C9.25244 137.547 10.3897 138.036 11.551 138.462C12.6524 138.891 13.7003 139.445 14.6737 140.115C15.3098 140.646 15.8258 141.306 16.1877 142.051C16.5106 142.928 16.6709 143.856 16.6608 144.79Z" fill="#EE7150"/>
<path d="M29.3883 151.449C28.038 151.547 26.6819 151.367 25.4042 150.92C24.1264 150.473 22.9542 149.769 21.9601 148.852C20.175 146.753 19.276 144.044 19.4525 141.296C19.365 139.894 19.563 138.489 20.0347 137.166C20.5063 135.843 21.2418 134.629 22.1967 133.598C23.2369 132.657 24.4552 131.935 25.7798 131.472C27.1044 131.01 28.5083 130.817 29.9088 130.906C32.1727 130.901 34.4071 131.418 36.4381 132.417L34.5455 137.281C33.8153 136.931 33.0553 136.647 32.2745 136.431C31.5565 136.2 30.8052 136.088 30.0507 136.101C29.5604 136.072 29.0706 136.165 28.6248 136.371C28.1791 136.577 27.7912 136.89 27.4958 137.281C26.826 138.389 26.5123 139.674 26.5968 140.965C26.5968 144.129 27.7324 145.688 30.0981 145.688C32.1672 145.685 34.1902 145.077 35.9176 143.94V149.371C34.0075 150.719 31.7272 151.444 29.3883 151.449Z" fill="#EE7150"/>
<path d="M53.0449 150.883L51.7201 148.238C50.9618 149.226 49.9919 150.033 48.8813 150.599C47.6896 151.053 46.4182 151.262 45.1435 151.213C44.3361 151.25 43.5297 151.122 42.7733 150.838C42.0169 150.554 41.3262 150.119 40.7434 149.56C39.6055 148.259 39.0275 146.562 39.1347 144.838C39.073 143.932 39.2399 143.025 39.6201 142.2C40.0003 141.374 40.5817 140.658 41.3111 140.115C43.2649 138.978 45.4843 138.376 47.7458 138.368H51.0577V138.084C51.1035 137.755 51.073 137.42 50.9686 137.104C50.8643 136.789 50.6888 136.502 50.4558 136.264C50.2227 136.027 49.9383 135.847 49.6243 135.736C49.3104 135.626 48.9752 135.589 48.6447 135.628C46.7157 135.751 44.8319 136.265 43.109 137.14L41.1219 132.417C43.8685 131.122 46.887 130.507 49.9222 130.622C52.0621 130.482 54.1757 131.157 55.8364 132.511C56.5232 133.211 57.0518 134.049 57.3864 134.97C57.7211 135.89 57.854 136.872 57.7762 137.848V150.883H53.0449ZM47.935 146.396C48.7223 146.415 49.486 146.127 50.0641 145.593C50.3604 145.347 50.5956 145.035 50.7515 144.683C50.9074 144.331 50.9798 143.947 50.9631 143.563V142.004H49.3544C47.1307 142.004 45.9952 142.901 45.9952 144.46C45.9952 146.018 46.421 146.396 47.7458 146.396H47.935Z" fill="#EE7150"/>
<path d="M74.8093 150.883V140.02C74.8661 138.997 74.6711 137.976 74.2416 137.045C74.0649 136.728 73.8028 136.468 73.4849 136.292C73.1671 136.117 72.8063 136.034 72.4437 136.053C71.9322 136.021 71.4217 136.132 70.9701 136.374C70.5186 136.616 70.144 136.979 69.8887 137.423C69.2999 138.925 69.0417 140.535 69.1317 142.146V150.835H62.5078V131H67.2392L68.1381 133.456H68.5166C69.1143 132.537 69.97 131.814 70.9769 131.378C72.0948 130.889 73.3053 130.648 74.5255 130.669C75.4696 130.607 76.4165 130.743 77.3048 131.068C78.1931 131.393 79.0032 131.901 79.6826 132.559C80.986 134.039 81.6494 135.975 81.5279 137.942V150.883H74.8093Z" fill="#EE7150"/>
<path d="M96.1001 145.829C97.252 145.785 98.3879 145.545 99.4593 145.121V150.127C98.5982 150.475 97.7127 150.759 96.8098 150.977C95.8273 151.16 94.8282 151.24 93.829 151.213C92.9319 151.289 92.0286 151.182 91.1745 150.898C90.3203 150.613 89.5332 150.158 88.8611 149.56C87.7401 148.052 87.2024 146.191 87.3471 144.318V136.148H84.9341V133.361L87.9621 131.189L89.7601 127.033H94.2548V131H98.9862V136.148H94.2548V143.893C94.2548 145.168 94.8699 145.829 96.1001 145.829Z" fill="#EE7150"/>
<path d="M115.452 150.883V140.021C115.452 137.376 114.647 136.053 113.086 136.053C112.576 136.023 112.067 136.14 111.622 136.392C111.177 136.643 110.815 137.018 110.578 137.47C109.985 138.905 109.727 140.455 109.821 142.004V150.741H102.914V123.585H109.821V127.458C109.821 129.205 109.821 131.236 109.537 133.456H109.821C110.369 132.524 111.174 131.77 112.14 131.283C113.138 130.849 114.221 130.64 115.31 130.67C116.265 130.609 117.222 130.751 118.119 131.084C119.015 131.418 119.832 131.936 120.514 132.606C121.81 134.072 122.473 135.99 122.359 137.943V150.883H115.452Z" fill="#EE7150"/>
<path d="M126.901 126.088C126.869 125.664 126.929 125.238 127.076 124.839C127.223 124.44 127.454 124.077 127.753 123.774C128.543 123.193 129.52 122.924 130.497 123.019C131.489 122.925 132.481 123.194 133.289 123.774C133.605 124.067 133.85 124.427 134.006 124.828C134.161 125.229 134.224 125.66 134.188 126.088C134.188 128.072 132.958 129.064 130.497 129.064C128.084 129.064 126.901 128.072 126.901 126.088ZM133.904 150.883H127.043V131H133.904V150.883Z" fill="#EE7150"/>
<path d="M154.107 144.79C154.144 145.693 153.966 146.592 153.588 147.413C153.21 148.234 152.642 148.954 151.93 149.513C150.058 150.705 147.853 151.267 145.638 151.119C144.356 151.146 143.074 151.067 141.805 150.883C140.672 150.728 139.561 150.442 138.493 150.033V144.649C139.618 145.146 140.792 145.526 141.995 145.782C143.089 146.085 144.218 146.244 145.354 146.254C146.868 146.254 147.625 145.924 147.625 145.215C147.606 145.02 147.534 144.834 147.418 144.676C147.301 144.518 147.144 144.394 146.963 144.318C145.818 143.67 144.614 143.132 143.367 142.712C141.889 142.209 140.568 141.33 139.534 140.162C138.767 139.109 138.383 137.826 138.446 136.526C138.408 135.688 138.583 134.854 138.956 134.103C139.328 133.351 139.885 132.706 140.575 132.228C142.379 131.084 144.498 130.538 146.631 130.669C147.874 130.66 149.114 130.803 150.322 131.095C151.56 131.4 152.764 131.827 153.918 132.37L152.072 136.762C151.14 136.338 150.175 135.991 149.186 135.723C148.372 135.473 147.529 135.331 146.679 135.298C145.543 135.298 144.975 135.581 144.975 136.101C144.979 136.294 145.039 136.481 145.149 136.641C145.258 136.8 145.412 136.924 145.59 136.998C146.699 137.547 147.836 138.036 148.997 138.462C150.089 138.878 151.123 139.434 152.072 140.115C152.739 140.616 153.262 141.284 153.586 142.051C153.949 142.918 154.126 143.851 154.107 144.79Z" fill="#EE7150"/>
<path d="M170.051 136.148H165.841V150.883H158.933V136.148H156.331V132.795L159.075 131.095V130.764C158.903 128.757 159.475 126.757 160.683 125.144C161.372 124.507 162.187 124.022 163.075 123.721C163.964 123.42 164.906 123.309 165.841 123.396C166.713 123.398 167.584 123.477 168.443 123.633C169.402 123.813 170.35 124.049 171.282 124.341L169.815 128.78C169.014 128.558 168.186 128.446 167.355 128.45C167.134 128.423 166.909 128.452 166.703 128.535C166.496 128.617 166.313 128.75 166.172 128.922C165.909 129.397 165.794 129.94 165.841 130.481V131H170.051V136.148Z" fill="#EE7150"/>
<path d="M191.768 140.918C191.918 143.701 190.967 146.432 189.119 148.521C188.15 149.453 186.998 150.174 185.736 150.637C184.473 151.1 183.128 151.297 181.785 151.213C180.458 151.279 179.131 151.065 177.892 150.585C176.653 150.105 175.529 149.369 174.593 148.427C172.861 146.297 171.915 143.638 171.915 140.894C171.915 138.151 172.861 135.491 174.593 133.361C175.562 132.43 176.714 131.709 177.977 131.246C179.239 130.782 180.585 130.586 181.927 130.669C183.737 130.638 185.527 131.06 187.132 131.897C188.618 132.721 189.821 133.971 190.585 135.487C191.412 137.175 191.818 139.039 191.768 140.918ZM178.852 140.918C178.78 142.246 179.023 143.573 179.561 144.79C179.768 145.223 180.098 145.584 180.511 145.828C180.924 146.072 181.401 146.188 181.88 146.16C182.345 146.181 182.807 146.062 183.203 145.818C183.6 145.573 183.914 145.215 184.104 144.79C184.624 143.569 184.851 142.243 184.766 140.918C184.787 139.674 184.562 138.438 184.104 137.281C183.897 136.866 183.569 136.522 183.164 136.295C182.759 136.068 182.295 135.967 181.832 136.006C181.371 135.979 180.912 136.085 180.51 136.311C180.107 136.537 179.778 136.874 179.561 137.281C179.054 138.425 178.811 139.668 178.852 140.918Z" fill="#EE7150"/>
<path d="M214.668 140.918C214.831 143.695 213.897 146.424 212.066 148.521C211.094 149.448 209.941 150.166 208.68 150.629C207.418 151.092 206.074 151.291 204.732 151.213C203.397 151.286 202.061 151.075 200.814 150.595C199.566 150.114 198.434 149.376 197.493 148.427C196.6 147.402 195.918 146.211 195.488 144.922C195.057 143.634 194.887 142.273 194.986 140.918C194.896 139.549 195.08 138.176 195.526 136.879C195.973 135.581 196.674 134.386 197.588 133.361C198.567 132.431 199.728 131.711 200.998 131.248C202.268 130.785 203.619 130.588 204.969 130.669C206.764 130.638 208.538 131.06 210.126 131.897C211.616 132.731 212.832 133.978 213.627 135.487C214.405 137.188 214.762 139.05 214.668 140.918ZM201.799 140.918C201.745 142.241 201.971 143.56 202.461 144.79C202.668 145.223 202.998 145.584 203.411 145.828C203.824 146.072 204.301 146.188 204.78 146.16C205.252 146.184 205.721 146.067 206.126 145.823C206.531 145.579 206.853 145.219 207.051 144.79C207.934 142.284 207.934 139.552 207.051 137.045C206.831 136.63 206.494 136.288 206.082 136.062C205.671 135.835 205.201 135.734 204.732 135.77C204.271 135.743 203.812 135.849 203.41 136.075C203.007 136.301 202.678 136.638 202.461 137.045C201.96 138.272 201.734 139.594 201.799 140.918Z" fill="#EE7150"/>
<path d="M224.793 151.449C223.451 151.48 222.136 151.065 221.055 150.269C219.916 149.324 219.064 148.081 218.595 146.68C217.996 144.916 217.708 143.063 217.743 141.201C217.596 138.543 218.273 135.904 219.683 133.645C220.574 132.313 221.915 131.346 223.462 130.921C225.009 130.496 226.657 130.641 228.105 131.331C229.053 131.863 229.851 132.627 230.423 133.55C230.189 131.987 230.078 130.408 230.092 128.828V123.585H237V150.883H231.796L230.329 148.38C229.797 149.366 228.993 150.18 228.012 150.724C227.03 151.268 225.913 151.52 224.793 151.449ZM227.585 146.066C228.035 146.104 228.487 146.029 228.9 145.847C229.314 145.666 229.675 145.384 229.95 145.027C230.448 144.031 230.692 142.928 230.66 141.815V141.06C230.767 139.754 230.505 138.445 229.903 137.281C229.633 136.916 229.274 136.624 228.86 136.434C228.447 136.244 227.991 136.162 227.537 136.195C227.1 136.195 226.671 136.314 226.296 136.538C225.921 136.763 225.614 137.085 225.408 137.47C224.875 138.589 224.631 139.823 224.699 141.06C224.613 142.288 224.875 143.515 225.456 144.602C225.664 144.981 225.972 145.297 226.348 145.513C226.723 145.73 227.151 145.839 227.585 145.829V146.066Z" fill="#EE7150"/>
<path d="M110.743 36.1434H108.095V64.8903H110.743V36.1434Z" fill="#EE7150"/>
<path d="M119.615 36.1434H112.862V64.8903H119.615V36.1434Z" fill="#EE7150"/>
<path d="M122.925 36.1434H121.469V64.8903H122.925V36.1434Z" fill="#EE7150"/>
<path d="M129.678 36.1434H125.574V64.8903H129.678V36.1434Z" fill="#EE7150"/>
<path d="M126.567 1.64716H111.207C110.001 1.64716 109.022 2.60874 109.022 3.79491C109.022 4.98108 110.001 5.94266 111.207 5.94266H126.567C127.774 5.94266 128.752 4.98108 128.752 3.79491C128.752 2.60874 127.774 1.64716 126.567 1.64716Z" fill="#EE7150"/>
<path d="M138.616 99.9813H99.4224C97.4207 99.9813 95.501 99.1875 94.0856 97.7747C92.6702 96.3619 91.875 94.4457 91.875 92.4476V8.38782C91.875 6.38977 92.6702 4.47355 94.0856 3.06071C95.501 1.64788 97.4207 0.854156 99.4224 0.854156H139.146C141.147 0.854156 143.067 1.64788 144.483 3.06071C145.898 4.47355 146.693 6.38977 146.693 8.38782V92.6459C146.669 93.6645 146.438 94.6676 146.014 95.5946C145.59 96.5215 144.982 97.353 144.227 98.0387C143.472 98.7244 142.586 99.2502 141.621 99.584C140.657 99.9179 139.634 100.053 138.616 99.9813ZM99.4224 4.15839C98.2987 4.15839 97.2209 4.60399 96.4263 5.39716C95.6317 6.19033 95.1853 7.2661 95.1853 8.38782V92.6459C95.1853 93.7676 95.6317 94.8433 96.4263 95.6365C97.2209 96.4297 98.2987 96.8753 99.4224 96.8753H139.146C140.27 96.8753 141.347 96.4297 142.142 95.6365C142.937 94.8433 143.383 93.7676 143.383 92.6459V8.38782C143.388 7.78498 143.263 7.18809 143.018 6.63717C142.773 6.08625 142.412 5.59404 141.961 5.19352C141.51 4.793 140.978 4.49344 140.401 4.31491C139.824 4.13638 139.215 4.08302 138.616 4.15839H99.4224Z" fill="#EE7150"/>
</svg>
